<?xml version="1.0" encoding="utf-8"?>
<!-- Generator: Adobe Illustrator 22.1.0, SVG Export Plug-In . SVG Version: 6.00 Build 0)  -->
<svg version="1.1" id="レイヤー_1" xmlns="http://www.w3.org/2000/svg" xmlns:xlink="http://www.w3.org/1999/xlink" x="0px"
	 y="0px" viewBox="0 0 71.4 67.9" style="enable-background:new 0 0 71.4 67.9;" xml:space="preserve">
<style type="text/css">
	.st0{fill:#C489FF;}
	.st1{fill:#FF89FF;}
	.st2{fill:url(#SVGID_1_);}
	.st3{fill:url(#SVGID_2_);}
	.st4{fill:#8989FF;}
	.st5{fill:url(#SVGID_3_);}
	.st6{fill:#89C4FF;}
	.st7{fill:#FF89C4;}
	.st8{fill:url(#SVGID_4_);}
	.st9{fill:url(#SVGID_5_);}
	.st10{fill:url(#SVGID_6_);}
	.st11{fill:url(#SVGID_7_);}
	.st12{fill:url(#SVGID_8_);}
	.st13{fill:url(#SVGID_9_);}
	.st14{fill:url(#SVGID_10_);}
	.st15{fill:url(#SVGID_11_);}
	.st16{fill:url(#SVGID_12_);}
	.st17{fill:url(#SVGID_13_);}
	.st18{fill:url(#SVGID_14_);}
</style>
<g>
	<g>
		<path class="st0" d="M12.1,46.8V20.9c0,0-4.2,2.8-6.8,6.7s-3.7,8.7-3.7,8.7L12.1,46.8z"/>
		<path class="st1" d="M18.8,55.8L0.4,37.5c0,0-0.9,5-0.1,9.5s3.6,8.8,3.6,8.8H18.8z"/>
		<linearGradient id="SVGID_1_" gradientUnits="userSpaceOnUse" x1="3.9011" y1="62.6201" x2="29.7976" y2="62.6201">
			<stop  offset="0" style="stop-color:#FFFFFF"/>
			<stop  offset="1" style="stop-color:#000000"/>
		</linearGradient>
		<path class="st2" d="M29.8,57.4H3.9c0,0,2.8,4.2,6.7,6.8c3.8,2.6,8.7,3.7,8.7,3.7L29.8,57.4z"/>
		<linearGradient id="SVGID_2_" gradientUnits="userSpaceOnUse" x1="65.7312" y1="-1.996582e-02" x2="-7.0225" y2="69.8119">
			<stop  offset="0" style="stop-color:#FFFFFF"/>
			<stop  offset="1" style="stop-color:#000000"/>
		</linearGradient>
		<path class="st3" d="M22.7,29.1h25.9c0,0-2.8-4.2-6.7-6.8s-8.7-3.7-8.7-3.7L22.7,29.1z"/>
		<path class="st4" d="M13.7,35.8L32,17.5c0,0-5-0.9-9.5-0.1c-4.6,0.9-8.8,3.6-8.8,3.6V35.8z"/>
		<linearGradient id="SVGID_3_" gradientUnits="userSpaceOnUse" x1="59.3542" y1="33.9985" x2="69.8515" y2="33.9985">
			<stop  offset="0" style="stop-color:#FFFFFF"/>
			<stop  offset="1" style="stop-color:#000000"/>
		</linearGradient>
		<path class="st5" d="M59.4,21.1v25.9c0,0,4.2-2.8,6.8-6.7c2.6-3.8,3.7-8.7,3.7-8.7L59.4,21.1z"/>
		<path class="st4" d="M52.7,12.1L71,30.4c0,0,0.9-5,0.1-9.5s-3.6-8.8-3.6-8.8H52.7z"/>
		<path class="st6" d="M41.6,10.5h25.9c0,0-2.8-4.2-6.7-6.8S52.1,0,52.1,0L41.6,10.5z"/>
		<path class="st7" d="M48.8,38.8H22.9c0,0,2.8,4.2,6.7,6.8c3.8,2.6,8.7,3.7,8.7,3.7L48.8,38.8z"/>
		<linearGradient id="SVGID_4_" gradientUnits="userSpaceOnUse" x1="39.4394" y1="41.4817" x2="57.7509" y2="41.4817">
			<stop  offset="0" style="stop-color:#FFFFFF"/>
			<stop  offset="1" style="stop-color:#000000"/>
		</linearGradient>
		<path class="st8" d="M57.8,32.1L39.4,50.4c0,0,5,0.9,9.5,0.1c4.6-0.9,8.8-3.6,8.8-3.6V32.1z"/>
	</g>
	<g>
		
			<linearGradient id="SVGID_5_" gradientUnits="userSpaceOnUse" x1="9.8215" y1="69.8259" x2="60.3273" y2="19.3201" gradientTransform="matrix(1 0 0 1 0 -10)">
			<stop  offset="0" style="stop-color:#FF89C4"/>
			<stop  offset="1" style="stop-color:#89C4FF"/>
		</linearGradient>
		<path class="st9" d="M12.1,46.8V20.9c0,0-4.2,2.8-6.8,6.7s-3.7,8.7-3.7,8.7L12.1,46.8z"/>
		
			<linearGradient id="SVGID_6_" gradientUnits="userSpaceOnUse" x1="9.8215" y1="69.8259" x2="60.3273" y2="19.3201" gradientTransform="matrix(1 0 0 1 0 -10)">
			<stop  offset="0" style="stop-color:#FF89C4"/>
			<stop  offset="1" style="stop-color:#89C4FF"/>
		</linearGradient>
		<path class="st10" d="M18.8,55.8L0.4,37.5c0,0-0.9,5-0.1,9.5s3.6,8.8,3.6,8.8H18.8z"/>
		
			<linearGradient id="SVGID_7_" gradientUnits="userSpaceOnUse" x1="9.8215" y1="69.8259" x2="60.3273" y2="19.3201" gradientTransform="matrix(1 0 0 1 0 -10)">
			<stop  offset="0" style="stop-color:#FF89C4"/>
			<stop  offset="1" style="stop-color:#89C4FF"/>
		</linearGradient>
		<path class="st11" d="M29.8,57.4H3.9c0,0,2.8,4.2,6.7,6.8c3.8,2.6,8.7,3.7,8.7,3.7L29.8,57.4z"/>
		
			<linearGradient id="SVGID_8_" gradientUnits="userSpaceOnUse" x1="9.8215" y1="69.8259" x2="60.3273" y2="19.3201" gradientTransform="matrix(1 0 0 1 0 -10)">
			<stop  offset="0" style="stop-color:#FF89C4"/>
			<stop  offset="1" style="stop-color:#89C4FF"/>
		</linearGradient>
		<path class="st12" d="M22.7,29.1h25.9c0,0-2.8-4.2-6.7-6.8s-8.7-3.7-8.7-3.7L22.7,29.1z"/>
		
			<linearGradient id="SVGID_9_" gradientUnits="userSpaceOnUse" x1="9.8215" y1="69.8259" x2="60.3273" y2="19.3201" gradientTransform="matrix(1 0 0 1 0 -10)">
			<stop  offset="0" style="stop-color:#FF89C4"/>
			<stop  offset="1" style="stop-color:#89C4FF"/>
		</linearGradient>
		<path class="st13" d="M13.7,35.8L32,17.5c0,0-5-0.9-9.5-0.1c-4.6,0.9-8.8,3.6-8.8,3.6V35.8z"/>
		
			<linearGradient id="SVGID_10_" gradientUnits="userSpaceOnUse" x1="9.8215" y1="69.8259" x2="60.3273" y2="19.3201" gradientTransform="matrix(1 0 0 1 0 -10)">
			<stop  offset="0" style="stop-color:#FF89C4"/>
			<stop  offset="1" style="stop-color:#89C4FF"/>
		</linearGradient>
		<path class="st14" d="M59.4,21.1v25.9c0,0,4.2-2.8,6.8-6.7c2.6-3.8,3.7-8.7,3.7-8.7L59.4,21.1z"/>
		
			<linearGradient id="SVGID_11_" gradientUnits="userSpaceOnUse" x1="9.8215" y1="69.8259" x2="60.3273" y2="19.3201" gradientTransform="matrix(1 0 0 1 0 -10)">
			<stop  offset="0" style="stop-color:#FF89C4"/>
			<stop  offset="1" style="stop-color:#89C4FF"/>
		</linearGradient>
		<path class="st15" d="M52.7,12.1L71,30.4c0,0,0.9-5,0.1-9.5s-3.6-8.8-3.6-8.8H52.7z"/>
		
			<linearGradient id="SVGID_12_" gradientUnits="userSpaceOnUse" x1="9.8215" y1="69.8259" x2="60.3273" y2="19.3201" gradientTransform="matrix(1 0 0 1 0 -10)">
			<stop  offset="0" style="stop-color:#FF89C4"/>
			<stop  offset="1" style="stop-color:#89C4FF"/>
		</linearGradient>
		<path class="st16" d="M41.6,10.5h25.9c0,0-2.8-4.2-6.7-6.8S52.1,0,52.1,0L41.6,10.5z"/>
		
			<linearGradient id="SVGID_13_" gradientUnits="userSpaceOnUse" x1="9.8215" y1="69.8259" x2="60.3273" y2="19.3201" gradientTransform="matrix(1 0 0 1 0 -10)">
			<stop  offset="0" style="stop-color:#FF89C4"/>
			<stop  offset="1" style="stop-color:#89C4FF"/>
		</linearGradient>
		<path class="st17" d="M48.8,38.8H22.9c0,0,2.8,4.2,6.7,6.8c3.8,2.6,8.7,3.7,8.7,3.7L48.8,38.8z"/>
		
			<linearGradient id="SVGID_14_" gradientUnits="userSpaceOnUse" x1="9.8215" y1="69.8259" x2="60.3273" y2="19.3201" gradientTransform="matrix(1 0 0 1 0 -10)">
			<stop  offset="0" style="stop-color:#FF89C4"/>
			<stop  offset="1" style="stop-color:#89C4FF"/>
		</linearGradient>
		<path class="st18" d="M57.8,32.1L39.4,50.4c0,0,5,0.9,9.5,0.1c4.6-0.9,8.8-3.6,8.8-3.6V32.1z"/>
	</g>
</g>
</svg>
